<svg xmlns="http://www.w3.org/2000/svg" xmlns:xlink="http://www.w3.org/1999/xlink" id="svg874" width="200mm" height="200mm" version="1.1" viewBox="0 0 200 200"><defs id="defs868"><linearGradient id="linearGradient913"><stop style="stop-color:#003261;stop-opacity:1" id="stop909" offset="0"/><stop style="stop-color:#2869a8;stop-opacity:1" id="stop911" offset="1"/></linearGradient><linearGradient id="linearGradient1764"><stop style="stop-color:#003261;stop-opacity:1" id="stop1760" offset="0"/><stop style="stop-color:#2869a8;stop-opacity:1" id="stop1762" offset="1"/></linearGradient><linearGradient id="linearGradient1756"><stop style="stop-color:#2869a8;stop-opacity:1" id="stop1752" offset="0"/><stop style="stop-color:#003261;stop-opacity:.99784571" id="stop1754" offset="1"/></linearGradient><linearGradient id="linearGradient1758" x1="-1146.437" x2="-321.541" y1="922.792" y2="-13.646" gradientUnits="userSpaceOnUse" xlink:href="#linearGradient1756"/><linearGradient id="linearGradient1766" x1="-223.622" x2="-1070.608" y1="18.476" y2="982.2" gradientTransform="matrix(0.25647438,0,0,0.26458341,-4.2996173,-4.1157636)" gradientUnits="userSpaceOnUse" xlink:href="#linearGradient1764"/><linearGradient id="linearGradient915" x1="-312.451" x2="-1338.043" y1="-239.078" y2="763.307" gradientUnits="userSpaceOnUse" xlink:href="#linearGradient913"/></defs><metadata id="metadata871"/><g style="display:inline" id="layer1"><g id="g895" transform="matrix(0.61680415,0,0,0.61680415,237.44331,12.743094)"><circle style="display:inline;fill:#2869a8;fill-opacity:1;stroke:none;stroke-width:2.77146;stroke-linecap:round;stroke-linejoin:round;stroke-opacity:1" id="path917" cx="-221.972" cy="141.732" r="160.319"/><path style="display:inline;fill:url(#linearGradient1766);fill-opacity:1;stroke:none;stroke-width:2.52539;stroke-linecap:round;stroke-linejoin:round" id="path1694" d="m -197.88443,300.15969 73.63159,-73.6316 c -98.42177,-26.12295 -107.60935,-12.60126 -167.69285,59.74806 29.83047,14.38186 63.24093,18.7309 94.06126,13.88354 z"/><path style="display:inline;fill:url(#linearGradient1758);fill-opacity:1;stroke:none;stroke-width:9.69449;stroke-linecap:round;stroke-linejoin:round" id="path1691" d="m -1103.4168,1081.9886 449.43765,-449.43757 c -0.66654,-0.24162 -28.87194,-20.57947 -41.61437,-24.35258 l -450.86728,450.86735 c 19.4839,11.1572 22.4429,13.9952 43.044,22.9228 z" transform="scale(0.26458333)"/><path style="display:inline;fill:url(#linearGradient915);fill-opacity:1;stroke:none;stroke-width:10.1202;stroke-linecap:round;stroke-linejoin:round" id="path1746" d="m -1146.4609,1059.0605 c 55.9112,-55.9114 676.71481,-676.71413 676.71481,-676.83198 -36.05419,-9.01388 -69.35986,-17.21756 -100.87891,-24.86914 -31.51905,-7.65159 -61.25276,-14.7517 -90.16211,-21.56055 -57.81869,-13.61771 -112.34297,-26.06948 -171.27539,-39.4336 -200.7497,-45.57699 -367.6839,-83.46613 -370.9648,-84.19921 l -5.9649,-1.33399 -228.1016,228.09961 a 604.82014,604.8206 0 0 0 -8.0742,98.49414 604.82014,604.8206 0 0 0 298.7071,521.63472 z" transform="scale(0.26458333)"/><rect style="fill:#fff;fill-opacity:1;stroke:#fff;stroke-width:2.91711;stroke-linecap:round;stroke-linejoin:round;stroke-miterlimit:4;stroke-dasharray:none;stroke-opacity:1" id="rect1527" width="193.457" height="43.35" x="-318.737" y="56.704"/><rect style="fill:#fff;fill-opacity:1;stroke:#fff;stroke-width:2.96032;stroke-linecap:round;stroke-linejoin:round;stroke-miterlimit:4;stroke-dasharray:none;stroke-opacity:1" id="rect1531" width="193.415" height="39.408" x="-318.716" y="186.075"/><path style="display:inline;fill:none;stroke:#fff;stroke-width:8.99999;stroke-linecap:round;stroke-linejoin:round;stroke-miterlimit:4;stroke-dasharray:none;stroke-opacity:1" id="path1542" d="m -305.64161,42.998751 h -26.2451 v 24.058577"/><path style="display:inline;fill:none;stroke:#fff;stroke-width:8.99999;stroke-linecap:round;stroke-linejoin:round;stroke-miterlimit:4;stroke-dasharray:none;stroke-opacity:1" id="path1544" d="M -111.59734,69.243852 V 42.998751 h -24.05858"/><path style="display:inline;fill:none;fill-opacity:1;stroke:#fff;stroke-width:8.99999;stroke-linecap:round;stroke-linejoin:round;stroke-miterlimit:4;stroke-dasharray:none;stroke-opacity:1" id="path1546" d="m -137.84243,240.07475 h 26.24509 v -24.05858"/><path style="display:inline;fill:none;stroke:#fff;stroke-width:8.99999;stroke-linecap:round;stroke-linejoin:round;stroke-miterlimit:4;stroke-dasharray:none;stroke-opacity:1" id="path1548" d="m -331.88671,213.41026 v 26.2451 h 24.05858"/><rect style="fill:#fff;fill-opacity:1;stroke:#fff;stroke-width:2.82512;stroke-linecap:round;stroke-linejoin:round;stroke-miterlimit:4;stroke-dasharray:none;stroke-opacity:1" id="rect1550" width="144.841" height="45.369" x="-318.783" y="121.043"/><rect style="fill:red;fill-opacity:0;stroke:none;stroke-width:2.74096;stroke-linecap:round;stroke-linejoin:round" id="rect1558" width="227.128" height="227.128" x="-335.906" y="28.63"/></g></g></svg>